<?xml version='1.0' encoding='utf-8'?>
<svg xmlns="http://www.w3.org/2000/svg" width="91.44mm" height="91.44mm" version="1.1" style="shape-rendering:geometricPrecision; text-rendering:geometricPrecision; image-rendering:optimizeQuality; fill-rule:evenodd; clip-rule:evenodd" viewBox="0 0 177.1 177.1"> <defs> <style type="text/css">  .fil0 {fill:#F0F0F0} .fil1 {fill:#011627;fill-rule:nonzero}  </style> </defs> <g id="Camada_x0020_1"> <metadata id="CorelCorpID_0Corel-Layer"/> <polygon class="fil0" points="177.1,177.1 -0,177.1 -0,0 177.1,0 "/> <path class="fil1" d="M86.2 50.11c9.97,0 18.99,4.04 25.52,10.57 6.53,6.53 10.57,15.55 10.57,25.52 0,9.38 -3.58,17.92 -9.44,24.34l13.65 13.65c0.64,0.64 0.64,1.68 0,2.32 -0.64,0.64 -1.68,0.64 -2.32,0l-13.65 -13.65c-6.42,5.86 -14.96,9.44 -24.34,9.44 -9.97,0 -18.99,-4.04 -25.52,-10.57 -6.53,-6.53 -10.57,-15.56 -10.57,-25.52 0,-9.97 4.04,-18.99 10.57,-25.52 6.53,-6.53 15.56,-10.57 25.52,-10.57zm23.2 12.89c-5.94,-5.94 -14.14,-9.61 -23.2,-9.61 -9.06,0 -17.27,3.67 -23.2,9.61 -5.94,5.94 -9.61,14.14 -9.61,23.2 0,9.06 3.67,17.27 9.61,23.2 5.94,5.94 14.14,9.61 23.2,9.61 9.06,0 17.27,-3.67 23.2,-9.61 5.94,-5.94 9.61,-14.14 9.61,-23.2 0,-9.06 -3.67,-17.26 -9.61,-23.2z"/> </g> </svg>